<svg xmlns="http://www.w3.org/2000/svg" 
  viewBox="0 0 333333 333333" 
  fill="currentColor" 
  fill-rule="evenodd" 
  clip-rule="evenodd">
  <path d="M166667 0c92048 0 166667 74619 166667 166667s-74619 166667-166667 166667S0 258715 0 166667 74619 0 166667 0zm-24085 227872c-4933 1644-9991 3162-14923 4806s-9865 3288-14923 4932c-11762 3794-18211 5944-19603 6323-1390 380-505-5059 2404-16440l9358-35791 70567-73349 37561 36169-70441 73349v1zm70314-136076c-1770-1644-3794-2529-6070-2403-2277 0-4300 885-5944 2656l-13406 13911 37560 36296 13532-14165c1644-1644 2276-3794 2276-6070s-885-4426-2530-5944l-25419-24282v1z"/>
</svg>